<svg width="920" height="803" viewBox="0 0 920 803" fill="none" xmlns="http://www.w3.org/2000/svg">
<path d="M688.455 186.379C609.593 125.101 502.844 186.379 399.131 315.329C295.418 444.279 246.103 390.01 157.938 446.845C69.7736 503.68 46.1927 736.495 356.815 713.861C667.437 691.226 894.61 346.35 688.455 186.379Z" fill="#F0F0F0"/>
<path d="M784.221 802.502C784.221 802.77 634.681 803 450.277 803C265.872 803 116.268 802.77 116.268 802.502C116.268 802.234 265.786 802.004 450.277 802.004C634.768 802.004 784.221 802.253 784.221 802.502Z" fill="#263238"/>
<path d="M638.515 568.078C605.243 547.416 597.706 509.061 599.019 474.573C599.235 468.828 598.524 462.739 601.604 457.703C604.683 452.666 611.876 449.2 617.669 451.613C622.471 453.624 624.56 458.603 627.252 462.72C630.844 468.203 636.107 472.671 642.434 475.607C646.547 477.522 651.651 478.671 655.721 476.679C661.32 473.941 661.966 467.105 661.923 461.36C661.923 450.675 661.852 440.002 661.708 429.343C661.321 423.619 661.975 417.877 663.646 412.338C665.649 406.9 670.107 401.864 676.201 400.332C682.295 398.8 689.897 401.96 691.276 407.551C691.513 409.919 691.578 412.299 691.469 414.675C691.642 417.068 692.891 419.692 695.41 420.419C697.93 421.147 700.557 419.481 702.495 417.796C709.128 412.051 713.651 404.564 717.85 397.172C722.049 389.781 726.162 382.178 732.192 375.878C738.222 369.578 746.556 364.58 755.881 364.102C765.206 363.623 774.918 368.717 777.244 376.759C779.569 384.802 774.293 393.017 768.63 399.547C760.083 409.239 750.009 417.785 738.717 424.919C736.513 425.989 734.754 427.661 733.7 429.687C732.3 433.517 736.37 437.347 740.612 438.554C745.415 439.971 750.626 439.53 755.687 440.066C760.748 440.602 766.132 442.556 768.048 446.768C770.675 452.628 765.162 458.756 759.757 462.777C748.904 470.82 736.579 477.148 723.32 481.486C718.582 483.018 713.607 484.377 709.774 487.326C705.941 490.275 703.658 495.426 705.963 499.467C708.267 503.507 714.189 504.79 719.164 503.967C724.138 503.144 728.553 500.769 733.291 499.18C742.141 496.212 753.555 496.748 759.133 503.546C760.861 505.887 761.954 508.553 762.328 511.335C762.702 514.116 762.345 516.936 761.286 519.574C759.131 524.823 755.814 529.635 751.531 533.725C737.426 548.71 719.1 560.095 698.425 566.719C677.902 573.038 658.887 574.761 638.493 568.117" fill="#F48C06"/>
<path d="M767.768 368.832C767.768 368.832 767.574 369.023 767.144 369.368L765.227 370.88C763.547 372.221 761.071 374.174 757.948 376.759C749.095 384.069 740.874 391.961 733.355 400.37C728.553 405.674 723.578 411.687 718.281 418.217C712.983 424.747 707.513 431.794 702.086 439.281C696.301 447.177 691.002 455.346 686.215 463.754C683.717 468.139 681.52 472.716 679.259 477.388L672.583 491.654C663.784 509.624 656.119 528.016 649.627 546.746C644.397 562.071 640.792 577.797 638.859 593.719C637.607 604.464 637.405 615.286 638.256 626.062C638.601 629.892 638.924 632.822 639.225 634.813C639.355 635.771 639.441 636.536 639.527 637.092V637.877C639.434 637.628 639.369 637.371 639.333 637.111C639.225 636.556 639.096 635.809 638.924 634.851C638.536 632.936 638.127 629.911 637.74 626.081C636.701 615.285 636.773 604.427 637.955 593.642C639.768 577.652 643.294 561.853 648.486 546.459C654.924 527.677 662.567 509.238 671.377 491.233L678.225 477.024C680.487 472.371 682.705 467.756 685.224 463.352C690.045 454.919 695.387 446.73 701.225 438.822C706.738 431.162 712.294 424.23 717.527 417.758C722.76 411.285 727.821 405.234 732.602 399.949C740.197 391.562 748.528 383.725 757.518 376.51C760.705 373.964 763.246 372.049 764.969 370.766L766.971 369.329C767.217 369.139 767.484 368.972 767.768 368.832Z" fill="#263238"/>
<path d="M685.504 463.313C685.2 462.525 684.991 461.709 684.879 460.881C684.535 459.292 684.147 457.052 683.695 454.141C682.769 448.396 681.822 440.526 680.809 431.813C679.797 423.1 678.656 415.211 677.708 409.523C677.213 406.689 676.782 404.411 676.481 402.821C676.246 402.008 676.123 401.172 676.115 400.332C676.486 401.099 676.753 401.902 676.912 402.726C677.385 404.296 677.924 406.555 678.527 409.409C679.754 415.153 680.96 422.966 681.972 431.698C682.984 440.43 683.846 448.09 684.513 454.045C684.836 456.726 685.116 459.005 685.332 460.824C685.499 461.645 685.557 462.48 685.504 463.313Z" fill="#263238"/>
<path d="M768.371 449.564C767.323 449.767 766.256 449.883 765.184 449.909C763.03 450.081 759.972 450.311 756.182 450.694C748.602 451.422 738.179 452.762 726.744 454.677C715.309 456.592 705.036 458.756 697.65 460.422C693.967 461.264 690.996 462.03 689.036 462.548C687.99 462.878 686.907 463.109 685.806 463.237C686.801 462.792 687.839 462.427 688.907 462.145C690.931 461.513 693.86 460.633 697.521 459.694C704.864 457.779 715.136 455.501 726.615 453.547C736.338 451.894 746.149 450.68 756.01 449.909C759.822 449.622 762.901 449.507 765.055 449.469C766.161 449.402 767.272 449.434 768.371 449.564Z" fill="#263238"/>
<path d="M649.541 545.119C649.311 544.841 649.123 544.539 648.981 544.219L647.56 541.557C646.332 539.24 644.674 535.812 642.693 531.618C638.687 523.193 633.583 511.397 628.157 498.299C622.73 485.201 617.734 473.405 613.943 464.884C612.091 460.747 610.562 457.358 609.421 454.83L608.215 452.092C608.048 451.776 607.932 451.441 607.871 451.096C608.1 451.373 608.288 451.676 608.43 451.996L609.852 454.658C611.058 456.975 612.738 460.403 614.719 464.596C618.724 473.022 623.828 484.818 629.255 497.916C634.682 511.014 639.678 522.81 643.468 531.331C645.32 535.467 646.849 538.857 647.969 541.384C648.464 542.476 648.873 543.299 649.196 544.123C649.364 544.439 649.48 544.774 649.541 545.119Z" fill="#263238"/>
<path d="M759.542 513.58C759.197 513.756 758.828 513.891 758.444 513.982L755.257 514.939L743.477 518.329C733.528 521.201 719.788 525.299 704.714 529.818C689.639 534.338 675.835 538.359 665.822 541.04C660.825 542.399 656.755 543.433 653.934 544.123L650.682 544.87C650.304 544.976 649.914 545.047 649.52 545.08C649.864 544.904 650.234 544.769 650.618 544.678L653.805 543.721L665.585 540.331C675.534 537.459 689.273 533.361 704.348 528.842C719.422 524.323 733.205 520.301 743.219 517.62C748.236 516.261 752.285 515.227 755.128 514.537L758.379 513.791C758.757 513.684 759.147 513.613 759.542 513.58Z" fill="#263238"/>
<path d="M714.663 49.0792L703.573 52.6027L698.814 39.7153C690.07 15.9512 662.204 3.33194 636.599 11.3554C610.994 19.3789 597.362 45.4409 606.105 69.205L610.864 82.0923L599.731 85.6349C595.485 87.0992 592.038 89.9619 590.104 93.628C588.171 97.2942 587.901 101.482 589.351 105.32L620.21 189.174C620.851 191.075 621.915 192.841 623.338 194.368C624.762 195.896 626.516 197.153 628.496 198.066C630.477 198.979 632.644 199.528 634.868 199.682C637.092 199.835 639.329 199.59 641.444 198.96L756.377 162.404C760.678 160.942 764.175 158.054 766.131 154.347C768.087 150.64 768.35 146.403 766.864 142.527L735.983 58.673C735.326 56.7781 734.246 55.0203 732.808 53.5046C731.37 51.9889 729.604 50.7462 727.614 49.8509C725.624 48.9555 723.452 48.4257 721.227 48.2931C719.002 48.1605 716.77 48.4279 714.663 49.0792ZM627.059 62.4836C624.701 56.3046 625.124 49.5541 628.24 43.6463C631.355 37.7386 636.92 33.1321 643.77 30.7918C647.152 29.7628 650.733 29.3501 654.299 29.5785C657.864 29.8068 661.341 30.6715 664.523 32.1209C667.705 33.5703 670.525 35.5747 672.817 38.0145C675.108 40.4544 676.823 43.2796 677.86 46.3218L682.598 59.2091L631.796 75.371L627.059 62.4836ZM691.664 136.897L699.546 158.306C699.691 158.735 699.644 159.198 699.415 159.597C699.187 159.996 698.794 160.302 698.318 160.451L687.271 163.955C686.831 164.063 686.361 164.016 685.96 163.823C685.558 163.631 685.256 163.307 685.117 162.921L677.171 141.608C672.789 141.396 668.585 139.998 665.121 137.603C661.657 135.207 659.099 131.928 657.789 128.203C655.916 123.28 656.258 117.903 658.743 113.199C661.227 108.494 665.663 104.827 671.119 102.965C673.814 102.146 676.666 101.818 679.506 102.001C682.346 102.183 685.115 102.872 687.649 104.027C690.183 105.181 692.43 106.777 694.256 108.72C696.081 110.663 697.448 112.913 698.275 115.335C699.661 119.118 699.775 123.178 698.605 127.018C697.434 130.859 695.03 134.312 691.685 136.955L691.664 136.897Z" fill="#F48C06"/>
<path d="M703.077 52.3729C703.077 52.641 682.511 59.5155 656.927 67.6922C631.344 75.8689 610.476 82.437 610.369 82.2455C610.261 82.054 630.935 75.1221 656.54 66.9262C682.145 58.7304 702.969 52.1239 703.077 52.3729Z" fill="#263238"/>
<path d="M727.498 55.8963C727.593 56.0625 727.673 56.2355 727.735 56.4134C727.907 56.7963 728.101 57.2942 728.36 57.907C728.92 59.3049 729.695 61.2389 730.664 63.6517L738.933 85.0605C742.379 94.1372 746.492 104.899 751.058 116.848C753.211 122.842 755.752 129.084 758.121 135.652C759.389 139.037 759.937 142.602 759.736 146.165C759.554 148.018 758.961 149.821 757.992 151.47C756.957 153.113 755.575 154.563 753.922 155.74C750.595 157.899 746.902 159.574 742.982 160.7L731.891 164.242L710.895 170.925L675.34 182.185L651.329 189.691L644.868 191.606L643.145 192.104C642.961 192.177 642.765 192.222 642.564 192.238C642.564 192.238 642.736 192.238 643.102 192.008L644.782 191.415L651.243 189.251L675.125 181.438L710.615 169.949L731.568 163.208L742.659 159.646C746.467 158.566 750.053 156.943 753.276 154.84C754.814 153.748 756.101 152.402 757.066 150.876C757.978 149.351 758.528 147.676 758.681 145.955C758.879 142.522 758.353 139.086 757.131 135.825C754.805 129.314 752.35 123.014 750.132 117.02C745.652 105.052 741.518 94.252 738.244 85.1754C734.971 76.0987 732.214 68.8029 730.319 63.6709C729.415 61.1623 728.726 59.2091 728.166 57.7921L727.649 56.2602C727.584 56.1441 727.534 56.0221 727.498 55.8963Z" fill="#263238"/>
<path d="M666.855 29.4897C666.855 29.4897 665.714 28.9918 663.604 28.2258C660.595 27.198 657.414 26.6283 654.193 26.5407C649.418 26.3951 644.667 27.193 640.281 28.8769C634.948 30.9737 630.387 34.3652 627.123 38.6621C623.837 42.9468 622.074 48.0102 622.062 53.1963C622.107 57.4469 622.832 61.6701 624.216 65.739C625.336 69.2241 626.499 72.0008 627.274 73.9348C627.731 74.9172 628.106 75.9285 628.394 76.9604C627.782 76.0419 627.27 75.0737 626.865 74.0689C625.982 72.1539 624.711 69.4348 623.462 65.9305C621.929 61.8189 621.094 57.5269 620.986 53.1963C620.928 47.8143 622.733 42.5466 626.154 38.1068C629.532 33.6529 634.279 30.1565 639.829 28.0343C644.352 26.3412 649.251 25.5944 654.15 25.8513C657.441 26.0005 660.674 26.6818 663.69 27.862C664.496 28.1928 665.274 28.5769 666.016 29.0109C666.322 29.1306 666.605 29.2921 666.855 29.4897Z" fill="#263238"/>
<path d="M667.846 104.42C668.19 104.235 668.55 104.075 668.923 103.942C670.001 103.509 671.117 103.157 672.261 102.888C674.076 102.412 675.948 102.129 677.839 102.046C680.41 101.923 682.982 102.268 685.397 103.061C690.91 104.784 695.971 109.782 698.469 116.465C699.667 120.051 699.667 123.87 698.469 127.457C697.141 131.349 694.76 134.893 691.535 137.778L691.664 137.261C694.528 144.25 697.651 151.834 700.881 159.742L701.075 160.221L700.537 160.393L695.605 161.849L684.837 165.046L684.299 165.2L684.127 164.721C681.176 156.793 677.946 149.402 675.513 142.144L675.986 142.47C671.777 142.159 667.762 140.754 664.444 138.429C661.441 136.373 658.979 133.759 657.229 130.769C655.651 128.118 654.865 125.151 654.947 122.152C655.046 119.087 655.907 116.08 657.467 113.346C659.027 110.611 661.248 108.217 663.97 106.335C665.091 105.526 666.348 104.88 667.696 104.42C666.479 105.062 665.3 105.759 664.164 106.507C661.173 108.757 658.882 111.652 657.509 114.914C656.331 117.374 655.78 120.035 655.896 122.707C656.011 125.379 656.79 127.995 658.177 130.367C659.898 133.243 662.3 135.752 665.219 137.721C668.385 139.93 672.212 141.262 676.223 141.55H676.589L676.697 141.838C679.066 148.961 682.318 156.41 685.311 164.376L684.601 164.07L695.368 160.872L700.278 159.397L699.934 160.048C696.725 152.14 693.624 144.538 690.781 137.548V137.261L691.04 137.031C694.17 134.266 696.505 130.87 697.845 127.131C698.987 123.7 698.987 120.049 697.845 116.618C695.497 110.184 690.652 105.301 685.397 103.578C683.071 102.78 680.588 102.409 678.097 102.486C676.237 102.524 674.387 102.749 672.584 103.156C669.375 103.865 667.868 104.516 667.846 104.42Z" fill="#263238"/>
<path d="M601.281 657.333L386.167 656.452C373.744 656.391 361.856 651.948 353.115 644.1C344.373 636.251 339.492 625.638 339.543 614.592L341.826 135.078C341.851 129.605 343.09 124.191 345.47 119.144C347.85 114.097 351.325 109.516 355.697 105.664C360.069 101.812 365.252 98.7642 370.949 96.6943C376.647 94.6244 382.747 93.5733 388.902 93.601L603.994 94.4818C616.417 94.5376 628.307 98.9753 637.052 106.82C645.798 114.665 650.685 125.276 650.639 136.323L648.356 615.817C648.331 621.292 647.093 626.708 644.714 631.757C642.334 636.806 638.859 641.389 634.488 645.244C630.117 649.099 624.934 652.151 619.236 654.225C613.539 656.299 607.437 657.355 601.281 657.333Z" fill="#455A64"/>
<path d="M603.671 110.969H561.98C560.619 110.992 559.277 111.252 558.03 111.736C556.783 112.22 555.655 112.917 554.711 113.788C553.767 114.66 553.026 115.688 552.529 116.814C552.032 117.94 551.789 119.143 551.815 120.352V127.074C551.841 128.282 551.598 129.484 551.101 130.609C550.604 131.734 549.862 132.761 548.917 133.631C547.973 134.501 546.845 135.196 545.598 135.678C544.351 136.16 543.01 136.418 541.65 136.438L460.377 136.112C457.628 136.047 455.02 135.014 453.126 133.24C451.232 131.467 450.208 129.097 450.277 126.652V119.931C450.347 117.489 449.325 115.123 447.436 113.35C445.547 111.577 442.944 110.542 440.199 110.471H425.533L389.031 110.318C380.349 110.272 372 113.287 365.813 118.703C359.625 124.119 356.103 131.494 356.018 139.214L353.865 607.258C353.845 611.087 354.673 614.883 356.303 618.428C357.933 621.974 360.333 625.198 363.364 627.919C366.396 630.64 370 632.803 373.972 634.284C377.944 635.766 382.205 636.538 386.512 636.556L601.173 637.437C605.483 637.454 609.755 636.717 613.744 635.266C617.734 633.816 621.363 631.681 624.425 628.984C627.486 626.286 629.92 623.079 631.588 619.545C633.255 616.011 634.124 612.22 634.144 608.387L636.297 140.344C636.349 132.602 632.941 125.159 626.823 119.651C620.705 114.143 612.378 111.02 603.671 110.969Z" fill="white"/>
<path d="M574.793 574.991L415.175 574.378C413.517 574.378 412.181 572.77 412.203 570.817L412.375 533.686C412.375 531.772 413.732 530.125 415.39 530.125L575.008 530.776C575.927 530.917 576.749 531.368 577.303 532.036C577.856 532.703 578.099 533.534 577.98 534.357L577.829 571.449C577.829 573.421 576.451 575.01 574.793 574.991Z" fill="#F48C06"/>
<path d="M462.453 544.721C462.418 544.429 462.278 544.202 462.031 544.04C461.785 543.878 461.483 543.797 461.125 543.797C460.863 543.797 460.634 543.84 460.438 543.924C460.243 544.009 460.091 544.126 459.981 544.274C459.874 544.422 459.82 544.59 459.82 544.779C459.82 544.937 459.857 545.073 459.932 545.186C460.009 545.298 460.107 545.391 460.227 545.466C460.346 545.54 460.471 545.6 460.602 545.648C460.733 545.694 460.853 545.732 460.963 545.761L461.564 545.923C461.718 545.963 461.889 546.019 462.078 546.09C462.268 546.161 462.45 546.258 462.623 546.382C462.799 546.503 462.943 546.659 463.057 546.849C463.17 547.04 463.227 547.274 463.227 547.551C463.227 547.871 463.143 548.159 462.976 548.417C462.81 548.675 462.568 548.88 462.248 549.032C461.93 549.185 461.544 549.261 461.09 549.261C460.667 549.261 460.3 549.192 459.99 549.056C459.682 548.919 459.439 548.728 459.262 548.484C459.087 548.239 458.988 547.955 458.965 547.632H459.704C459.723 547.855 459.798 548.04 459.929 548.186C460.062 548.331 460.23 548.439 460.432 548.51C460.636 548.579 460.855 548.614 461.09 548.614C461.364 548.614 461.609 548.569 461.826 548.481C462.044 548.39 462.216 548.265 462.343 548.106C462.47 547.944 462.534 547.755 462.534 547.54C462.534 547.343 462.479 547.183 462.369 547.06C462.26 546.937 462.115 546.837 461.936 546.76C461.757 546.683 461.564 546.616 461.356 546.558L460.628 546.35C460.166 546.217 459.8 546.027 459.531 545.781C459.261 545.535 459.127 545.212 459.127 544.814C459.127 544.483 459.216 544.194 459.395 543.948C459.576 543.699 459.819 543.507 460.123 543.37C460.429 543.231 460.771 543.162 461.148 543.162C461.529 543.162 461.868 543.23 462.164 543.367C462.461 543.502 462.696 543.687 462.869 543.922C463.044 544.156 463.136 544.423 463.146 544.721H462.453ZM465.12 543.243V549.157H464.404V543.243H465.12ZM471.246 543.243V549.157H470.553L467.33 544.513H467.272V549.157H466.556V543.243H467.249L470.483 547.898H470.541V543.243H471.246ZM476.721 545.091C476.658 544.897 476.574 544.722 476.47 544.568C476.368 544.412 476.246 544.28 476.103 544.17C475.963 544.06 475.803 543.976 475.624 543.919C475.445 543.861 475.248 543.832 475.035 543.832C474.684 543.832 474.366 543.922 474.079 544.103C473.792 544.284 473.564 544.551 473.395 544.903C473.225 545.256 473.141 545.688 473.141 546.2C473.141 546.712 473.226 547.144 473.398 547.496C473.569 547.849 473.801 548.115 474.093 548.296C474.386 548.477 474.715 548.568 475.081 548.568C475.42 548.568 475.718 548.495 475.976 548.351C476.236 548.205 476.438 547.999 476.582 547.733C476.729 547.465 476.802 547.151 476.802 546.789L477.021 546.835H475.243V546.2H477.495V546.835C477.495 547.322 477.391 547.746 477.183 548.106C476.977 548.466 476.692 548.745 476.328 548.943C475.966 549.139 475.551 549.237 475.081 549.237C474.557 549.237 474.097 549.114 473.701 548.868C473.306 548.621 472.998 548.271 472.777 547.817C472.557 547.362 472.448 546.823 472.448 546.2C472.448 545.732 472.51 545.311 472.635 544.938C472.762 544.563 472.941 544.243 473.172 543.979C473.403 543.716 473.677 543.513 473.992 543.373C474.308 543.232 474.656 543.162 475.035 543.162C475.347 543.162 475.637 543.209 475.907 543.304C476.178 543.396 476.42 543.528 476.632 543.699C476.845 543.869 477.023 544.072 477.166 544.308C477.308 544.543 477.406 544.804 477.46 545.091H476.721ZM484.889 543.243H485.605V547.158C485.605 547.563 485.51 547.924 485.319 548.241C485.131 548.557 484.864 548.806 484.52 548.989C484.175 549.17 483.771 549.261 483.307 549.261C482.843 549.261 482.439 549.17 482.094 548.989C481.749 548.806 481.482 548.557 481.291 548.241C481.103 547.924 481.008 547.563 481.008 547.158V543.243H481.724V547.101C481.724 547.389 481.788 547.646 481.915 547.872C482.042 548.095 482.223 548.271 482.458 548.4C482.695 548.527 482.978 548.591 483.307 548.591C483.636 548.591 483.919 548.527 484.156 548.4C484.393 548.271 484.573 548.095 484.699 547.872C484.826 547.646 484.889 547.389 484.889 547.101V543.243ZM487.035 549.157V543.243H489.034C489.497 543.243 489.877 543.327 490.171 543.494C490.468 543.66 490.687 543.884 490.83 544.167C490.972 544.45 491.043 544.766 491.043 545.114C491.043 545.463 490.972 545.779 490.83 546.064C490.689 546.349 490.472 546.576 490.177 546.746C489.882 546.913 489.505 546.997 489.045 546.997H487.613V546.361H489.022C489.34 546.361 489.595 546.307 489.787 546.197C489.98 546.087 490.119 545.939 490.206 545.752C490.294 545.564 490.339 545.351 490.339 545.114C490.339 544.877 490.294 544.666 490.206 544.479C490.119 544.292 489.979 544.146 489.784 544.04C489.59 543.932 489.332 543.878 489.01 543.878H487.751V549.157H487.035Z" fill="#E8E8E3"/>
<path d="M447.013 248.556L391.625 248.333L391.579 257.371L446.967 257.595L447.013 248.556Z" fill="#F48C06"/>
<path opacity="0.1" d="M447.013 248.556L391.625 248.333L391.579 257.371L446.967 257.595L447.013 248.556Z" fill="black"/>
<path d="M609.378 304.05C609.813 304.011 610.24 303.921 610.648 303.782C611.244 303.575 611.762 303.222 612.143 302.765C612.524 302.308 612.753 301.764 612.802 301.197C612.802 298.152 612.802 293.709 612.802 288.003C612.802 285.15 612.802 281.952 612.802 278.428C612.802 277.567 612.802 276.667 612.802 275.767C612.942 274.893 612.728 274.004 612.199 273.258C611.902 272.901 611.517 272.609 611.072 272.406C610.627 272.203 610.136 272.095 609.636 272.09H606.277H575.158L395.039 271.496C394.578 271.49 394.122 271.582 393.71 271.765C393.297 271.948 392.941 272.218 392.67 272.55C392.15 273.299 391.951 274.189 392.11 275.058C392.11 276.973 392.11 278.888 392.11 280.803C392.11 284.633 392.11 288.463 392.11 292.292C392.11 294.207 392.11 296.122 392.11 298.037C392.021 298.929 392.021 299.826 392.11 300.718C392.223 301.1 392.434 301.455 392.725 301.753C393.016 302.052 393.38 302.288 393.79 302.441C394.214 302.592 394.669 302.663 395.125 302.652H406.087L453.916 302.882L534.888 303.322L589.479 303.705L604.317 303.859H608.172C609.055 303.859 609.485 303.859 609.485 303.859H608.172H604.317H589.479H534.888L453.916 303.629L406.087 303.456H395.125C394.522 303.478 393.92 303.387 393.359 303.188C392.792 302.973 392.288 302.646 391.885 302.231C391.482 301.816 391.191 301.325 391.034 300.795C390.909 300.292 390.865 299.776 390.904 299.263V297.846C390.904 295.931 390.904 294.016 390.904 292.101C390.904 288.271 390.904 284.441 390.904 280.611C390.904 278.697 390.904 276.782 390.904 274.867C390.863 274.357 390.863 273.845 390.904 273.335C390.985 272.771 391.23 272.237 391.615 271.784C391.986 271.321 392.478 270.946 393.048 270.689C393.618 270.432 394.249 270.302 394.888 270.309L575.008 271.19L606.126 271.382H609.485C610.077 271.382 610.66 271.509 611.185 271.753C611.71 271.996 612.161 272.348 612.5 272.779C613.107 273.612 613.352 274.613 613.189 275.594C613.189 276.494 613.189 277.394 613.189 278.256C613.189 281.741 613.189 284.939 613.189 287.831C613.189 293.575 613.039 297.98 612.996 301.044C612.943 301.633 612.702 302.196 612.302 302.668C611.901 303.139 611.357 303.499 610.734 303.705C610.327 303.93 609.857 304.049 609.378 304.05Z" fill="#E0E0E0"/>
<path d="M509.563 281.109H408.262V289.554H509.563V281.109Z" fill="#F48C06"/>
<path opacity="0.2" d="M509.563 281.109H408.262V289.554H509.563V281.109Z" fill="white"/>
<path d="M446.634 331.01L391.247 330.786L391.2 339.825L446.588 340.048L446.634 331.01Z" fill="#F48C06"/>
<path opacity="0.1" d="M446.634 331.01L391.247 330.786L391.2 339.825L446.588 340.048L446.634 331.01Z" fill="black"/>
<path d="M607.978 386.506C608.413 386.459 608.845 386.388 609.27 386.296C609.872 386.125 610.425 385.842 610.893 385.466C611.362 385.089 611.733 384.628 611.984 384.113C612.323 383.34 612.456 382.507 612.371 381.681C612.371 380.761 612.371 379.766 612.371 378.655C612.371 376.434 612.371 373.906 612.371 370.995V358.836C612.474 357.955 612.255 357.069 611.747 356.308C611.216 355.528 610.38 354.948 609.4 354.68C608.327 354.51 607.235 354.459 606.148 354.527H575.159L395.664 353.934C394.699 353.936 393.767 354.249 393.042 354.816C392.317 355.383 391.848 356.165 391.723 357.017C391.723 358.836 391.723 360.846 391.723 362.761C391.723 366.591 391.723 370.421 391.723 374.251C391.723 376.166 391.723 378.081 391.723 379.996C391.643 380.89 391.686 381.791 391.852 382.676C392.121 383.453 392.675 384.127 393.424 384.591C394.22 385.04 395.154 385.255 396.095 385.204H399.088H405.312L452.969 385.415L533.661 385.855L588.058 386.238L602.853 386.391H588.058H533.661L452.926 386.315L405.269 386.162H395.901C394.736 386.223 393.58 385.947 392.606 385.376C391.626 384.773 390.911 383.887 390.582 382.868C390.389 381.895 390.331 380.904 390.409 379.919C390.409 378.004 390.409 376.089 390.409 374.174C390.409 370.344 390.409 366.515 390.409 362.685C390.409 360.77 390.409 358.855 390.409 356.94C390.567 355.845 391.167 354.838 392.099 354.109C393.03 353.379 394.229 352.977 395.47 352.976L574.965 353.857L605.954 354.068C607.108 354.005 608.266 354.075 609.4 354.278C610.519 354.603 611.462 355.286 612.048 356.193C612.606 357.037 612.847 358.016 612.738 358.989C612.738 359.889 612.738 360.77 612.738 361.651C612.738 365.117 612.738 368.295 612.738 371.225C612.738 374.155 612.738 376.625 612.738 378.885C612.738 379.976 612.738 380.991 612.738 381.93C612.816 382.786 612.661 383.646 612.285 384.438C612.006 384.966 611.601 385.435 611.1 385.812C610.598 386.188 610.011 386.465 609.378 386.621C608.908 386.656 608.434 386.617 607.978 386.506Z" fill="#E0E0E0"/>
<path d="M446.217 417.045L390.83 416.821L390.783 425.859L446.171 426.083L446.217 417.045Z" fill="#F48C06"/>
<path opacity="0.1" d="M446.217 417.045L390.83 416.821L390.783 425.859L446.171 426.083L446.217 417.045Z" fill="black"/>
<path d="M607.548 472.505C607.983 472.459 608.415 472.389 608.84 472.294C609.439 472.125 609.99 471.845 610.458 471.472C610.926 471.099 611.299 470.641 611.553 470.13C611.891 469.357 612.023 468.525 611.941 467.699C611.941 466.76 611.941 465.784 611.941 464.654C611.941 462.452 611.941 459.905 611.941 456.994V444.834C612.044 443.954 611.825 443.068 611.316 442.307C610.772 441.541 609.941 440.971 608.969 440.698C607.897 440.521 606.805 440.463 605.717 440.526H574.728L395.233 439.932C394.268 439.934 393.336 440.248 392.611 440.815C391.886 441.382 391.418 442.164 391.292 443.015C391.292 444.93 391.292 446.845 391.292 448.76C391.292 452.59 391.292 456.42 391.292 460.25C391.292 462.164 391.292 464.079 391.292 465.994C391.212 466.883 391.256 467.777 391.422 468.656C391.68 469.437 392.235 470.114 392.994 470.571C393.784 471.03 394.723 471.245 395.664 471.184H405.032L452.689 471.413L533.381 471.854L587.778 472.237L602.573 472.39H587.778H533.381L452.689 472.179L405.032 472.007H395.664C394.498 472.077 393.339 471.801 392.369 471.222C391.389 470.618 390.674 469.732 390.345 468.713C390.152 467.74 390.094 466.75 390.173 465.764C390.173 463.85 390.173 461.935 390.173 460.02C390.173 456.19 390.173 452.36 390.173 448.53C390.173 446.615 390.173 444.7 390.173 442.69C390.325 441.596 390.921 440.59 391.849 439.86C392.777 439.13 393.973 438.727 395.212 438.726L574.707 439.607L605.696 439.817C606.85 439.754 608.008 439.825 609.141 440.028C610.26 440.353 611.204 441.035 611.79 441.943C612.347 442.786 612.589 443.765 612.479 444.739C612.479 445.639 612.479 446.539 612.479 447.4C612.479 450.866 612.479 454.045 612.479 456.975C612.479 459.905 612.479 462.375 612.479 464.635C612.479 465.726 612.479 466.741 612.479 467.679C612.562 468.536 612.407 469.397 612.027 470.188C611.747 470.716 611.343 471.185 610.841 471.562C610.34 471.938 609.752 472.214 609.12 472.371C608.615 472.525 608.076 472.571 607.548 472.505Z" fill="#E0E0E0"/>
<path d="M507.401 365.953L406.101 365.544L406.057 373.989L507.357 374.398L507.401 365.953Z" fill="#F48C06"/>
<path opacity="0.2" d="M507.401 365.953L406.101 365.544L406.057 373.989L507.357 374.398L507.401 365.953Z" fill="white"/>
<path d="M415.261 456.879C415.197 457.65 414.881 458.386 414.351 458.998C413.821 459.61 413.1 460.07 412.279 460.321C411.458 460.572 410.571 460.603 409.73 460.411C408.889 460.218 408.13 459.81 407.547 459.238C406.965 458.665 406.584 457.953 406.452 457.189C406.32 456.426 406.443 455.645 406.806 454.943C407.169 454.241 407.755 453.65 408.492 453.242C409.23 452.834 410.086 452.627 410.954 452.647C412.154 452.707 413.279 453.184 414.085 453.977C414.891 454.769 415.314 455.812 415.261 456.879Z" fill="#F48C06"/>
<path d="M428.979 456.937C429.021 457.477 428.938 458.018 428.735 458.529C428.532 459.039 428.213 459.506 427.798 459.902C427.383 460.298 426.88 460.613 426.322 460.829C425.764 461.045 425.162 461.156 424.553 461.156C423.945 461.156 423.343 461.045 422.785 460.829C422.226 460.613 421.724 460.298 421.309 459.902C420.894 459.506 420.575 459.039 420.372 458.529C420.169 458.018 420.086 457.477 420.128 456.937C420.086 456.397 420.169 455.855 420.372 455.345C420.575 454.835 420.894 454.367 421.309 453.972C421.724 453.576 422.226 453.26 422.785 453.044C423.343 452.829 423.945 452.717 424.553 452.717C425.162 452.717 425.764 452.829 426.322 453.044C426.88 453.26 427.383 453.576 427.798 453.972C428.213 454.367 428.532 454.835 428.735 455.345C428.938 455.855 429.021 456.397 428.979 456.937Z" fill="#F48C06"/>
<path d="M442.718 456.994C442.654 457.764 442.338 458.501 441.808 459.113C441.278 459.725 440.557 460.185 439.736 460.436C438.915 460.687 438.028 460.718 437.187 460.526C436.346 460.333 435.587 459.925 435.004 459.352C434.422 458.78 434.041 458.068 433.909 457.304C433.777 456.541 433.9 455.76 434.263 455.058C434.626 454.356 435.212 453.765 435.949 453.357C436.687 452.948 437.543 452.742 438.411 452.762C439.609 452.826 440.73 453.306 441.536 454.097C442.341 454.888 442.765 455.928 442.718 456.994Z" fill="#F48C06"/>
<path d="M456.436 457.052C456.372 457.822 456.056 458.559 455.526 459.17C454.996 459.782 454.275 460.242 453.454 460.493C452.632 460.744 451.746 460.776 450.905 460.583C450.064 460.39 449.305 459.983 448.722 459.41C448.139 458.837 447.758 458.125 447.627 457.362C447.495 456.598 447.618 455.817 447.981 455.115C448.343 454.414 448.93 453.822 449.667 453.414C450.405 453.006 451.26 452.799 452.129 452.82C453.327 452.884 454.448 453.363 455.253 454.154C456.059 454.945 456.483 455.985 456.436 457.052Z" fill="#F48C06"/>
<path d="M470.154 457.09C470.094 457.861 469.781 458.6 469.253 459.215C468.726 459.829 468.006 460.292 467.185 460.546C466.364 460.8 465.477 460.834 464.634 460.643C463.791 460.453 463.03 460.046 462.445 459.474C461.86 458.902 461.477 458.189 461.344 457.425C461.211 456.661 461.333 455.879 461.695 455.176C462.058 454.474 462.644 453.881 463.382 453.472C464.12 453.063 464.977 452.856 465.847 452.877C467.04 452.941 468.159 453.418 468.963 454.205C469.768 454.992 470.195 456.027 470.154 457.09Z" fill="#F48C06"/>
<path d="M483.893 457.147C483.835 457.915 483.525 458.65 483.002 459.263C482.479 459.876 481.767 460.34 480.951 460.597C480.136 460.854 479.254 460.894 478.414 460.711C477.574 460.528 476.812 460.131 476.222 459.569C475.632 459.006 475.24 458.302 475.095 457.544C474.949 456.786 475.056 456.006 475.402 455.301C475.748 454.596 476.318 453.997 477.043 453.576C477.767 453.156 478.614 452.933 479.479 452.935C480.692 452.975 481.837 453.44 482.665 454.23C483.492 455.02 483.934 456.069 483.893 457.147Z" fill="#F48C06"/>
<path d="M497.611 457.205C497.654 457.745 497.571 458.286 497.367 458.797C497.164 459.307 496.845 459.774 496.43 460.17C496.015 460.566 495.513 460.881 494.955 461.097C494.396 461.313 493.794 461.424 493.186 461.424C492.577 461.424 491.975 461.313 491.417 461.097C490.859 460.881 490.357 460.566 489.941 460.17C489.526 459.774 489.207 459.307 489.004 458.797C488.801 458.286 488.718 457.745 488.76 457.205C488.718 456.665 488.801 456.123 489.004 455.613C489.207 455.103 489.526 454.635 489.941 454.24C490.357 453.844 490.859 453.528 491.417 453.313C491.975 453.097 492.577 452.985 493.186 452.985C493.794 452.985 494.396 453.097 494.955 453.313C495.513 453.528 496.015 453.844 496.43 454.24C496.845 454.635 497.164 455.103 497.367 455.613C497.571 456.123 497.654 456.665 497.611 457.205Z" fill="#F48C06"/>
<path d="M511.329 457.262C511.27 458.03 510.96 458.765 510.438 459.378C509.915 459.991 509.202 460.454 508.387 460.712C507.572 460.969 506.69 461.009 505.849 460.826C505.009 460.643 504.247 460.246 503.657 459.683C503.068 459.121 502.676 458.417 502.53 457.659C502.384 456.9 502.491 456.121 502.837 455.416C503.183 454.711 503.754 454.111 504.478 453.691C505.202 453.27 506.049 453.048 506.914 453.05C508.127 453.089 509.273 453.555 510.1 454.345C510.928 455.134 511.37 456.184 511.329 457.262Z" fill="#F48C06"/>
<path d="M525.047 457.32C524.987 458.091 524.674 458.83 524.146 459.444C523.619 460.059 522.899 460.522 522.078 460.776C521.257 461.03 520.37 461.064 519.527 460.873C518.684 460.683 517.923 460.276 517.338 459.704C516.753 459.132 516.37 458.419 516.237 457.655C516.104 456.891 516.226 456.109 516.588 455.406C516.951 454.703 517.537 454.111 518.275 453.702C519.013 453.293 519.87 453.086 520.74 453.107C521.934 453.171 523.052 453.648 523.857 454.435C524.661 455.222 525.088 456.257 525.047 457.32Z" fill="#F48C06"/>
<g opacity="0.2">
<path d="M415.261 456.879C415.197 457.65 414.881 458.386 414.351 458.998C413.821 459.61 413.1 460.07 412.279 460.321C411.458 460.572 410.571 460.603 409.73 460.411C408.889 460.218 408.13 459.81 407.547 459.238C406.965 458.665 406.584 457.953 406.452 457.189C406.32 456.426 406.443 455.645 406.806 454.943C407.169 454.241 407.755 453.65 408.492 453.242C409.23 452.834 410.086 452.627 410.954 452.647C412.154 452.707 413.279 453.184 414.085 453.977C414.891 454.769 415.314 455.812 415.261 456.879Z" fill="white"/>
<path d="M428.979 456.937C429.021 457.476 428.938 458.018 428.735 458.528C428.532 459.038 428.213 459.506 427.798 459.902C427.383 460.297 426.88 460.613 426.322 460.829C425.764 461.045 425.162 461.156 424.553 461.156C423.945 461.156 423.343 461.045 422.785 460.829C422.226 460.613 421.724 460.297 421.309 459.902C420.894 459.506 420.575 459.038 420.372 458.528C420.169 458.018 420.086 457.476 420.128 456.937C420.086 456.397 420.169 455.855 420.372 455.345C420.575 454.835 420.894 454.367 421.309 453.971C421.724 453.576 422.226 453.26 422.785 453.044C423.343 452.829 423.945 452.717 424.553 452.717C425.162 452.717 425.764 452.829 426.322 453.044C426.88 453.26 427.383 453.576 427.798 453.971C428.213 454.367 428.532 454.835 428.735 455.345C428.938 455.855 429.021 456.397 428.979 456.937Z" fill="white"/>
<path d="M442.718 456.994C442.654 457.764 442.338 458.501 441.808 459.113C441.278 459.725 440.557 460.185 439.736 460.436C438.915 460.687 438.028 460.718 437.187 460.526C436.346 460.333 435.587 459.925 435.004 459.352C434.422 458.78 434.041 458.068 433.909 457.304C433.777 456.541 433.9 455.76 434.263 455.058C434.626 454.356 435.212 453.765 435.949 453.357C436.687 452.948 437.543 452.742 438.411 452.762C439.609 452.826 440.73 453.306 441.536 454.097C442.341 454.888 442.765 455.928 442.718 456.994Z" fill="white"/>
<path d="M456.436 457.052C456.372 457.822 456.056 458.559 455.526 459.17C454.996 459.782 454.275 460.242 453.454 460.493C452.632 460.744 451.746 460.776 450.905 460.583C450.064 460.39 449.305 459.983 448.722 459.41C448.139 458.837 447.758 458.125 447.627 457.362C447.495 456.598 447.618 455.817 447.981 455.115C448.343 454.414 448.93 453.822 449.667 453.414C450.405 453.006 451.26 452.799 452.129 452.82C453.327 452.884 454.448 453.363 455.253 454.154C456.059 454.945 456.483 455.985 456.436 457.052Z" fill="white"/>
<path d="M470.154 457.09C470.094 457.861 469.781 458.6 469.253 459.215C468.726 459.829 468.006 460.292 467.185 460.546C466.364 460.8 465.477 460.834 464.634 460.643C463.791 460.453 463.03 460.046 462.445 459.474C461.86 458.902 461.477 458.189 461.344 457.425C461.211 456.661 461.333 455.879 461.695 455.176C462.058 454.474 462.644 453.881 463.382 453.472C464.12 453.063 464.977 452.856 465.847 452.877C467.04 452.941 468.159 453.418 468.963 454.205C469.768 454.992 470.195 456.027 470.154 457.09Z" fill="white"/>
<path d="M483.893 457.147C483.835 457.915 483.525 458.65 483.002 459.263C482.479 459.876 481.767 460.34 480.951 460.597C480.136 460.854 479.254 460.894 478.414 460.711C477.574 460.528 476.812 460.131 476.222 459.569C475.632 459.006 475.24 458.302 475.095 457.544C474.949 456.786 475.056 456.006 475.402 455.301C475.748 454.596 476.318 453.997 477.043 453.576C477.767 453.156 478.614 452.933 479.479 452.935C480.692 452.975 481.837 453.44 482.665 454.23C483.492 455.02 483.934 456.069 483.893 457.147Z" fill="white"/>
<path d="M497.611 457.205C497.654 457.745 497.571 458.286 497.367 458.797C497.164 459.307 496.845 459.774 496.43 460.17C496.015 460.566 495.513 460.881 494.955 461.097C494.396 461.313 493.794 461.424 493.186 461.424C492.577 461.424 491.975 461.313 491.417 461.097C490.859 460.881 490.357 460.566 489.941 460.17C489.526 459.774 489.207 459.307 489.004 458.797C488.801 458.286 488.718 457.745 488.76 457.205C488.718 456.665 488.801 456.123 489.004 455.613C489.207 455.103 489.526 454.635 489.941 454.24C490.357 453.844 490.859 453.528 491.417 453.313C491.975 453.097 492.577 452.985 493.186 452.985C493.794 452.985 494.396 453.097 494.955 453.313C495.513 453.528 496.015 453.844 496.43 454.24C496.845 454.635 497.164 455.103 497.367 455.613C497.571 456.123 497.654 456.665 497.611 457.205Z" fill="white"/>
<path d="M511.329 457.262C511.27 458.03 510.96 458.765 510.438 459.378C509.915 459.991 509.202 460.454 508.387 460.712C507.572 460.969 506.69 461.009 505.849 460.826C505.009 460.643 504.247 460.246 503.657 459.683C503.068 459.121 502.676 458.417 502.53 457.659C502.384 456.9 502.491 456.121 502.837 455.416C503.183 454.711 503.754 454.111 504.478 453.691C505.202 453.27 506.049 453.048 506.914 453.05C508.127 453.089 509.273 453.555 510.1 454.345C510.928 455.134 511.37 456.184 511.329 457.262Z" fill="white"/>
<path d="M525.047 457.32C524.987 458.091 524.674 458.83 524.146 459.444C523.619 460.059 522.899 460.522 522.078 460.776C521.257 461.03 520.37 461.064 519.527 460.873C518.684 460.683 517.923 460.276 517.338 459.704C516.753 459.132 516.37 458.419 516.237 457.655C516.104 456.891 516.226 456.109 516.588 455.406C516.951 454.703 517.537 454.111 518.275 453.702C519.013 453.293 519.87 453.086 520.74 453.107C521.934 453.171 523.052 453.648 523.857 454.435C524.661 455.222 525.088 456.257 525.047 457.32Z" fill="white"/>
</g>
<path d="M505.557 180.883C507.053 180.297 508.322 179.333 509.207 178.111C510.091 176.888 510.552 175.462 510.532 174.008C510.588 173.063 510.426 172.118 510.058 171.231C509.69 170.343 509.122 169.531 508.39 168.845C507.658 168.159 506.776 167.612 505.798 167.239C504.821 166.865 503.768 166.673 502.704 166.673C501.64 166.673 500.587 166.865 499.609 167.239C498.632 167.612 497.75 168.159 497.018 168.845C496.285 169.531 495.718 170.343 495.349 171.231C494.981 172.118 494.82 173.063 494.876 174.008C494.843 175.476 495.3 176.92 496.189 178.157C497.079 179.394 498.36 180.369 499.872 180.959C487.812 182.568 488.351 194.211 488.351 194.211L516.863 194.325C516.863 194.325 517.531 182.472 505.557 180.883Z" fill="#F48C06"/>
<path opacity="0.1" d="M505.557 180.883C507.053 180.297 508.322 179.333 509.207 178.111C510.091 176.888 510.552 175.462 510.532 174.008C510.588 173.063 510.426 172.118 510.058 171.231C509.69 170.343 509.122 169.531 508.39 168.845C507.658 168.159 506.776 167.612 505.798 167.239C504.821 166.865 503.768 166.673 502.704 166.673C501.64 166.673 500.587 166.865 499.609 167.239C498.632 167.612 497.75 168.159 497.018 168.845C496.285 169.531 495.718 170.343 495.349 171.231C494.981 172.118 494.82 173.063 494.876 174.008C494.843 175.476 495.3 176.92 496.189 178.157C497.079 179.394 498.36 180.369 499.872 180.959C487.812 182.568 488.351 194.211 488.351 194.211L516.863 194.325C516.863 194.325 517.531 182.472 505.557 180.883Z" fill="black"/>
<path d="M551.889 201.835L450.266 201.425L450.211 212.225L551.834 212.635L551.889 201.835Z" fill="#F48C06"/>
<path opacity="0.2" d="M551.889 201.835L450.266 201.425L450.211 212.225L551.834 212.635L551.889 201.835Z" fill="white"/>
<path d="M178.289 257.805H177.277L174.348 257.996C172.763 258.081 171.187 258.267 169.632 258.552C168.625 258.677 167.625 258.85 166.638 259.069L163.3 259.892C157.619 261.442 152.259 263.803 147.429 266.882C141.048 271 135.72 276.273 131.795 282.354C129.488 285.859 127.652 289.593 126.325 293.48C124.93 297.703 124.127 302.064 123.934 306.463C123.806 308.773 123.849 311.089 124.064 313.395C124.064 314.563 124.43 315.731 124.602 316.918C124.747 318.115 124.999 319.3 125.356 320.461C127.292 328.145 131.221 335.32 136.83 341.414C142.438 347.509 149.571 352.353 157.658 355.561C163.512 357.807 169.786 359.061 176.157 359.257C182.737 359.579 189.325 358.739 195.538 356.787L197.434 356.155H197.692L197.907 356.27L225.063 368.525L224.266 369.138C221.359 361.134 218.559 353.378 215.846 345.929V345.642L216.083 345.431C222.671 339.531 227.561 332.306 230.339 324.367C232.856 317.11 233.59 309.456 232.493 301.924C231.517 295.231 229.096 288.768 225.365 282.89C222.148 277.841 217.998 273.31 213.09 269.486C209.04 266.459 204.558 263.922 199.759 261.941C196.129 260.549 192.348 259.49 188.475 258.781L184.168 258.15L181.045 257.939L179.15 257.824H178.504C178.719 257.803 178.936 257.803 179.15 257.824H181.067L184.189 257.939L188.496 258.494C192.417 259.151 196.25 260.171 199.932 261.539C204.812 263.497 209.375 266.028 213.499 269.065C218.498 272.871 222.735 277.404 226.032 282.469C229.87 288.41 232.364 294.96 233.376 301.752C234.564 309.4 233.881 317.186 231.373 324.578C228.576 332.681 223.61 340.061 216.901 346.082L217.03 345.584C219.744 353.034 222.565 360.789 225.494 368.774L225.903 369.942L224.675 369.387L197.52 357.151H197.993L196.055 357.782C189.722 359.764 183.013 360.623 176.308 360.31C169.799 360.09 163.394 358.791 157.421 356.48C146.029 352.142 136.55 344.601 130.438 335.014C127.625 330.586 125.571 325.81 124.344 320.844C124.007 319.653 123.756 318.444 123.59 317.225C123.417 316.018 123.138 314.831 123.073 313.644C122.49 306.83 123.3 299.979 125.463 293.422C126.823 289.483 128.71 285.702 131.084 282.163C135.103 276.026 140.542 270.72 147.041 266.594C151.951 263.507 157.401 261.165 163.171 259.662L166.552 258.896C167.547 258.691 168.554 258.531 169.567 258.418C171.138 258.159 172.729 258.005 174.326 257.958L177.277 257.862C177.612 257.822 177.95 257.803 178.289 257.805Z" fill="#F48C06"/>
<path d="M190.564 302.461H186.58L177.966 291.699V284.633C177.966 284.633 171.807 284.288 172.539 293.537C173.271 302.786 172.539 300.431 172.539 300.431C172.539 300.431 159.467 300.431 158.39 301.484C157.314 302.537 157.249 313.759 157.098 320.02C157.016 321.53 157.503 323.021 158.482 324.256C159.462 325.491 160.877 326.4 162.504 326.837C162.96 326.95 163.43 327.008 163.903 327.01C167.177 327.01 183.823 324.654 183.823 324.654H190.693L190.564 302.461Z" fill="#F48C06"/>
<path d="M201.956 300.565L199.501 324.769H192.696V301.063L201.956 300.565Z" fill="#F48C06"/>
<path d="M283.122 793.33V776.957L250.109 776.746L249.829 801.506L251.874 801.64C260.984 802.157 298.218 802.923 304.334 801.238C311.139 799.362 283.122 793.33 283.122 793.33Z" fill="#F48C06"/>
<path d="M305.109 799.706C305.109 799.974 292.748 800.204 277.523 800.204C262.298 800.204 249.937 799.974 249.937 799.706C249.937 799.438 262.298 799.208 277.523 799.208C292.748 799.208 305.109 799.438 305.109 799.706Z" fill="#263238"/>
<path d="M283.704 796.681C283.424 796.547 283.704 795.685 284.371 794.766C285.039 793.847 285.943 793.464 286.159 793.655C286.374 793.847 285.922 794.574 285.276 795.359C284.63 796.145 283.984 796.815 283.704 796.681Z" fill="#263238"/>
<path d="M285.814 797.753C285.512 797.753 285.663 796.681 286.309 795.666C286.955 794.651 287.817 794.038 288.053 794.191C288.29 794.345 287.903 795.206 287.3 796.106C286.697 797.006 286.094 797.849 285.814 797.753Z" fill="#263238"/>
<path d="M259.886 799.63C259.757 799.63 259.261 799.285 258.551 798.557C257.683 797.622 256.717 796.763 255.665 795.991C254.631 795.257 253.398 794.775 252.09 794.593C251.078 794.479 250.432 794.594 250.367 794.479C250.303 794.364 250.927 793.962 252.112 793.885C253.675 793.856 255.2 794.317 256.419 795.187C257.561 796.015 258.524 797.021 259.261 798.155C259.757 798.998 260.015 799.553 259.886 799.63Z" fill="#263238"/>
<path d="M283.811 793.598C283.961 793.828 283.402 794.402 282.454 794.708C281.506 795.015 280.667 794.9 280.624 794.708C280.58 794.517 281.248 794.115 282.066 793.847C282.885 793.579 283.638 793.368 283.811 793.598Z" fill="#263238"/>
<path d="M283.294 792.008C283.294 792.296 282.432 792.525 281.313 792.545C280.193 792.564 279.31 792.334 279.331 792.066C279.353 791.798 280.236 791.549 281.313 791.53C282.389 791.511 283.251 791.74 283.294 792.008Z" fill="#263238"/>
<path d="M364.417 793.33V776.957L331.404 776.746L331.124 801.257L333.169 801.391C342.279 801.908 379.534 802.923 385.629 801.238C392.434 799.362 364.417 793.33 364.417 793.33Z" fill="#F48C06"/>
<path d="M386.404 799.745C386.404 800.013 374.065 800.242 358.818 800.242C343.571 800.242 331.253 800.013 331.253 799.745C331.253 799.477 343.593 799.247 358.818 799.247C374.043 799.247 386.404 799.477 386.404 799.745Z" fill="#263238"/>
<path d="M364.999 796.681C364.74 796.547 364.999 795.685 365.666 794.766C366.334 793.847 367.238 793.464 367.454 793.655C367.669 793.847 367.217 794.574 366.571 795.359C365.925 796.145 365.279 796.815 364.999 796.681Z" fill="#263238"/>
<path d="M367.109 797.753C366.829 797.753 366.958 796.681 367.625 795.666C368.293 794.651 369.133 794.038 369.37 794.191C369.607 794.345 369.197 795.206 368.595 796.106C367.992 797.006 367.41 797.849 367.109 797.753Z" fill="#263238"/>
<path d="M341.181 799.63C341.052 799.63 340.578 799.285 339.846 798.557C338.978 797.622 338.012 796.763 336.96 795.991C335.925 795.257 334.693 794.775 333.385 794.593C332.394 794.479 331.727 794.594 331.662 794.479C331.598 794.364 332.222 793.962 333.407 793.885C334.97 793.856 336.495 794.317 337.714 795.187C338.862 796.01 339.826 797.016 340.556 798.155C341.052 798.998 341.31 799.553 341.181 799.63Z" fill="#263238"/>
<path d="M365.106 793.598C365.256 793.828 364.696 794.402 363.749 794.708C362.801 795.015 361.962 794.9 361.918 794.708C361.875 794.517 362.543 794.115 363.361 793.847C364.18 793.579 364.933 793.368 365.106 793.598Z" fill="#263238"/>
<path d="M364.632 792.008C364.632 792.296 363.771 792.525 362.651 792.545C361.531 792.564 360.67 792.334 360.691 792.066C360.713 791.798 361.574 791.549 362.651 791.53C363.728 791.511 364.632 791.74 364.632 792.008Z" fill="#263238"/>
<path d="M486.047 307.133C485.185 306.348 483.053 306.731 483.053 306.731C483.267 305.628 483.267 304.501 483.053 303.399C482.666 302.327 479.952 302.537 479.952 302.537C479.827 301.634 479.827 300.721 479.952 299.818C479.974 299.618 479.926 299.417 479.814 299.242C479.702 299.067 479.532 298.927 479.328 298.841C478.044 298.376 476.665 298.154 475.279 298.19C473.621 297.137 480.34 288.769 482.838 286.088C485.336 283.407 484.884 281.32 482.666 281.32C481.137 281.32 473.298 289.363 470.886 292.063C468.474 294.763 462.078 302.269 461.863 296.275C461.648 290.282 458.934 285.763 457.233 284.997C455.532 284.231 453.723 286.031 454.649 287.697C455.462 289.589 455.97 291.575 456.156 293.595C456.39 295.203 456.31 296.836 455.919 298.42C455.205 301.368 454.233 304.262 453.012 307.076H452.84C452.84 307.076 405.85 347.155 402.448 350.008C399.411 352.574 338.338 346.963 326.084 345.814C321.92 345.272 317.716 345.016 313.508 345.048C308.189 345.259 307.241 345.929 301.943 345.987C288.565 346.119 275.217 347.162 262.017 349.108C256.041 350.011 250.458 352.357 245.878 355.89C241.298 359.422 237.897 364.005 236.046 369.138C223.707 403.415 195.754 484.55 190.822 530.125C187.096 536.134 183.732 542.315 180.744 548.642C177.277 557.029 178.117 557.317 179.28 557.508C182.424 558.025 185.999 542.974 187.334 546.612C188.669 550.25 180.55 564.555 183.845 564.976C188.152 565.512 191.576 549.657 191.985 548.393C192.395 547.129 194.527 547.531 194.139 548.719C193.514 550.404 187.463 568.27 191.684 568.844C194.01 569.151 194.268 565.378 194.268 565.378C194.268 565.378 198.575 548.278 200.535 548.623C202.495 548.967 200.406 559.059 199.415 562.429C198.424 565.8 199.803 567.504 201.827 566.68C203.205 566.106 206.5 555.861 207.405 552.529C208.309 549.197 210.57 539.967 213.607 545.31C216.643 550.653 221.252 553.755 223.147 553.831C223.574 553.788 223.976 553.631 224.302 553.382C224.629 553.133 224.864 552.803 224.977 552.435C225.091 552.066 225.077 551.676 224.939 551.314C224.801 550.952 224.544 550.635 224.202 550.404C222.572 548.988 221.173 547.377 220.046 545.616C219.041 544.245 218.312 542.729 217.892 541.136C217.024 537.959 216.519 534.713 216.385 531.446L216.04 529.531C220.864 508.295 234.754 445.964 254.803 406.153L263.03 421.204L266.604 432.349L244.682 480.471L338.187 479.38L324.232 431.622L341.18 381.834C359.507 382.198 406.561 382.81 414.4 379.651C424.263 375.821 475.279 318.527 475.279 318.527C478.605 316.229 481.789 313.774 484.819 311.174C484.819 311.174 487.92 308.856 486.047 307.133Z" fill="#FFBE9D"/>
<path d="M240.569 444.911C243.282 436.677 257.215 395.966 257.215 395.966C257.215 395.966 264.063 429.151 262.254 433.154C260.59 436.58 258.625 439.884 256.375 443.034C240.569 464.424 242.636 475.128 242.636 475.128L338.144 472.543C338.359 460.671 330.456 433.058 328.819 428.653C327.183 424.249 332.631 409.83 332.631 409.83C332.631 409.83 343.399 400.083 343.011 395.066C342.806 390.559 342.18 386.076 341.137 381.661L399.282 383.576L397.452 348.533L313.939 341.104C311.031 348.399 284.737 344.819 284.737 344.819C256.354 345.661 254.588 350.295 242.787 358.453C230.985 366.61 211.453 436.62 211.453 436.62L240.569 444.911Z" fill="#F48C06"/>
<path d="M297.034 436.62C295.379 436.883 293.693 436.96 292.016 436.849C288.894 436.849 284.608 436.658 279.892 436.237C275.176 435.815 270.912 435.222 267.875 434.685C266.201 434.494 264.559 434.121 262.987 433.575C264.671 433.575 266.35 433.716 268.004 433.996C271.062 434.341 275.305 434.82 280 435.241C284.694 435.662 288.958 435.949 292.038 436.141C293.716 436.16 295.389 436.32 297.034 436.62Z" fill="#263238"/>
<path d="M303.58 429.4C301.925 430.122 300.174 430.655 298.369 430.99C289.777 432.997 280.913 433.932 272.031 433.766C270.194 433.819 268.356 433.665 266.562 433.307C268.375 433.103 270.204 433.02 272.031 433.058C275.412 432.962 280.064 432.751 285.189 432.215C290.315 431.679 294.88 430.913 298.11 430.3C299.905 429.874 301.733 429.573 303.58 429.4Z" fill="#263238"/>
<path d="M335.71 397.191C335.667 398.651 335.443 400.103 335.043 401.519C334.483 404.181 333.621 407.819 332.523 411.802C331.425 415.785 330.369 419.462 329.422 421.951C329.041 423.376 328.477 424.758 327.742 426.068C327.862 424.613 328.166 423.174 328.647 421.779C329.465 418.792 330.391 415.345 331.425 411.572C332.458 407.8 333.449 404.353 334.267 401.366C334.559 399.928 335.043 398.527 335.71 397.191Z" fill="#263238"/>
<path d="M241.581 440.028C236.599 439.344 231.682 438.326 226.872 436.983C221.958 435.962 217.135 434.617 212.444 432.962C217.423 433.657 222.339 434.675 227.152 436.007C232.068 437.025 236.891 438.369 241.581 440.028Z" fill="#263238"/>
<path d="M342.171 381.24C341.359 381.365 340.529 381.365 339.716 381.24C337.467 381.035 335.258 380.565 333.148 379.842C329.625 378.665 326.418 376.846 323.733 374.501C321.048 372.156 318.944 369.338 317.557 366.227C316.023 362.805 315.368 359.122 315.64 355.446C315.736 352.414 316.756 349.463 318.59 346.906C319.881 345.183 321.808 343.916 324.039 343.325C324.635 343.179 325.251 343.108 325.869 343.114C326.3 343.114 326.515 343.114 326.515 343.114C326.515 343.114 325.611 343.114 324.168 343.631C322.122 344.303 320.386 345.564 319.236 347.212C316.308 351.31 315.489 358.797 318.612 365.787C320.065 369.082 322.34 372.042 325.266 374.442C327.664 376.406 330.425 377.987 333.428 379.115C336.246 380.105 339.178 380.818 342.171 381.24Z" fill="#263238"/>
<path d="M392.369 382.887C391.83 377.015 391.658 371.121 391.852 365.232C391.683 359.347 391.885 353.459 392.455 347.595C392.994 353.461 393.167 359.349 392.972 365.232C393.153 371.122 392.952 377.017 392.369 382.887Z" fill="#263238"/>
<path d="M313.379 343.248C313.616 338.978 314.111 334.152 314.111 334.152C314.111 334.152 325.998 332.984 326.709 322.069C327.42 311.154 326.709 285.973 326.709 285.973L305.174 276.169L281.27 292.886L284.953 347.461L306.875 348.706C308.551 348.747 310.177 348.196 311.396 347.173C312.615 346.15 313.328 344.738 313.379 343.248Z" fill="#FFBE9D"/>
<path d="M315.511 313.433C315.511 313.433 315.511 313.644 315.317 313.893C315.157 314.073 314.949 314.216 314.713 314.31C314.477 314.403 314.218 314.444 313.96 314.429C312.582 314.429 311.247 313.012 310.773 311.365C310.548 310.567 310.548 309.731 310.773 308.933C310.817 308.585 310.958 308.252 311.184 307.964C311.41 307.676 311.712 307.443 312.065 307.286C312.355 307.18 312.68 307.18 312.969 307.286C313.184 307.381 313.358 307.536 313.465 307.727C313.616 308.052 313.465 308.263 313.465 308.244C313.465 308.225 313.465 308.052 313.249 307.861C313.137 307.724 312.971 307.628 312.785 307.593C312.598 307.558 312.403 307.585 312.237 307.669C311.973 307.811 311.754 308.01 311.599 308.248C311.445 308.486 311.361 308.754 311.354 309.029C311.173 309.741 311.173 310.48 311.354 311.193C311.785 312.686 312.948 313.893 313.982 314.008C314.184 314.032 314.39 314.019 314.586 313.97C314.782 313.92 314.965 313.835 315.123 313.72C315.381 313.567 315.468 313.414 315.511 313.433Z" fill="#EB996E"/>
<path d="M334.095 280.075C332.437 275.058 326.429 272.569 320.959 271.19C312.625 269.084 303.623 268.165 295.483 270.826C287.343 273.488 277.566 278.16 277.566 286.146C272.764 285.801 270.007 289.535 268.112 294.169C266.9 296.992 266.174 299.962 265.958 302.978C265.355 313.433 262.061 327.872 254.437 335.531C250.13 339.801 244.165 342.75 241.71 348.074C239.556 352.689 240.676 358.165 238.674 362.838C236.886 366.955 232.945 369.885 230.059 373.466C227.12 377.528 225.389 382.188 225.032 387.008C224.674 391.829 225.7 396.651 228.014 401.021C230.344 405.28 233.625 409.072 237.657 412.167C241.689 415.261 246.387 417.594 251.465 419.021C261.524 421.743 272.251 421.836 282.368 419.29C289.961 417.675 297.044 414.552 303.085 410.155C309.266 405.667 313.512 399.416 315.102 392.462C316.631 384.649 314.176 376.702 312.345 368.927C306.617 344.359 308.253 343.076 315.489 320.269C315.661 319.867 315.748 319.446 315.877 319.044C316.006 318.642 316.071 318.45 316.157 318.144C316.362 317.242 316.47 316.325 316.48 315.405C315.423 315.755 314.276 315.829 313.173 315.619C312.071 315.408 311.059 314.922 310.256 314.218C309.452 313.467 308.891 312.537 308.633 311.525C308.375 310.514 308.43 309.459 308.792 308.473C309.3 307.395 310.057 306.424 311.014 305.622C311.971 304.821 313.107 304.207 314.348 303.82C316.738 302.939 319.301 302.48 321.648 301.503C326.623 299.397 330.068 295.031 332.416 290.454C334.346 287.282 334.941 283.602 334.095 280.075Z" fill="#263238"/>
<path d="M316.372 313.95C316.827 314.548 317.203 315.19 317.492 315.865C318.138 317.071 318.999 318.776 319.947 320.748L320.119 321.112H319.667L317.513 321.284C316.027 321.284 314.778 321.533 313.314 321.514C313.187 321.489 313.068 321.435 312.97 321.358C312.873 321.281 312.798 321.183 312.754 321.074C312.69 320.899 312.69 320.712 312.754 320.537C312.804 320.279 312.869 320.024 312.948 319.771L313.336 318.412C313.53 317.505 313.834 316.619 314.24 315.769C314.2 316.694 314.048 317.612 313.788 318.508L313.486 319.867C313.379 320.327 313.185 321.035 313.486 320.978C314.563 320.978 316.092 320.767 317.513 320.691L319.667 320.518L319.387 320.94C318.461 319.025 317.686 317.225 317.233 315.98C316.837 315.344 316.547 314.66 316.372 313.95Z" fill="#F48C06"/>
<path d="M242.636 475.128L338.144 472.543L379.707 616.813L372.062 782.3H321.562L327.743 620.336L290.81 519.899L296.495 788.715L245.457 789.385L240.095 536.712C239.858 529.684 237.274 513.848 238.243 506.878L242.636 475.128Z" fill="#263238"/>
<path d="M303.516 521.948C301.952 522.036 300.383 521.952 298.843 521.699C295.957 521.393 292.016 520.857 287.687 520.091C283.359 519.325 279.483 518.444 276.683 517.735C275.186 517.443 273.739 516.979 272.376 516.357C272.376 516.069 279.396 517.563 288.01 519.114C296.624 520.665 303.559 521.661 303.516 521.948Z" fill="#455A64"/>
<path d="M371.545 773.223C371.545 773.491 360.11 773.721 346.005 773.721C331.899 773.721 320.442 773.491 320.442 773.223C320.442 772.955 331.878 772.725 346.005 772.725C360.132 772.725 371.545 772.936 371.545 773.223Z" fill="#455A64"/>
<path d="M296.043 781.725C296.043 782.013 284.93 782.223 271.234 782.223C257.538 782.223 246.447 782.013 246.447 781.725C246.447 781.438 257.559 781.227 271.234 781.227C284.909 781.227 296.043 781.457 296.043 781.725Z" fill="#455A64"/>
<path d="M289.453 781.036C289.152 781.036 287.817 722.305 286.46 649.864C285.103 577.423 284.307 518.654 284.587 518.654C284.867 518.654 286.245 577.366 287.58 649.845C288.915 722.325 289.776 781.036 289.453 781.036Z" fill="#455A64"/>
<path d="M364.761 773.223C364.738 772.962 364.738 772.699 364.761 772.438V770.14C364.761 768.072 364.934 765.104 365.063 761.331C365.364 753.672 365.795 742.546 366.333 728.912C367.496 701.49 369.133 663.69 370.92 621.964C370.92 621.562 370.92 621.179 370.92 620.834V620.968C359.614 580.755 349.385 544.257 341.956 517.85L333.342 486.618C332.351 482.96 331.597 480.107 331.059 478.116C330.8 477.177 330.628 476.45 330.477 475.894C330.393 475.645 330.343 475.388 330.327 475.128C330.439 475.37 330.525 475.62 330.585 475.875C330.757 476.411 330.973 477.139 331.274 478.058C331.856 479.973 332.695 482.884 333.772 486.522C335.926 493.914 338.962 504.561 342.752 517.678C350.247 544.065 360.583 580.468 372.04 620.738V620.872C372.04 621.217 372.04 621.619 372.04 622.002C370.123 663.728 368.379 701.51 367.109 728.931C366.441 742.584 365.881 753.633 365.493 761.331C365.278 765.161 365.106 768.072 364.998 770.14C364.998 771.117 364.869 771.883 364.847 772.438C364.851 772.702 364.822 772.965 364.761 773.223Z" fill="#455A64"/>
<path d="M348.287 617.464C344.66 618.524 340.923 619.262 337.132 619.666C332.481 620.375 328.518 620.873 326.731 620.949V620.566C327.312 620.719 327.614 620.815 327.614 620.892C327.614 620.968 327.248 620.892 326.645 620.892H325.353L326.645 620.547C328.324 620.107 332.287 619.379 336.938 618.632C340.669 617.912 344.47 617.521 348.287 617.464Z" fill="#455A64"/>
<path d="M347.404 622.96C344.045 623.097 340.679 622.962 337.347 622.558C333.983 622.496 330.632 622.17 327.333 621.581C334.064 621.093 340.838 621.558 347.404 622.96Z" fill="#455A64"/>
<path opacity="0.2" d="M242.227 478.173C243.358 479.465 244.782 480.53 246.408 481.298C248.033 482.067 249.822 482.523 251.659 482.635C255.505 483.04 259.396 482.976 263.223 482.443C287.881 480.011 314.003 477.771 338.144 472.543C306.896 474.094 273.883 473.577 242.636 475.128L242.313 477.503" fill="black"/>
<g opacity="0.2">
<path d="M274.422 517.333L292.038 578.112L290.81 519.899L274.422 517.333Z" fill="black"/>
</g>
</svg>
