<svg width="124" height="83" viewBox="0 0 124 83" fill="none" xmlns="http://www.w3.org/2000/svg">
<path d="M37.9645 4.94975C39.9171 2.99713 43.0829 2.99713 45.0355 4.94975L78.0502 37.9645C80.0029 39.9171 80.0029 43.0829 78.0503 45.0355L45.0355 78.0502C43.0829 80.0029 39.9171 80.0029 37.9645 78.0503L4.94975 45.0355C2.99713 43.0829 2.99713 39.9171 4.94975 37.9645L37.9645 4.94975Z" stroke="#F48C06" stroke-width="2"/>
<path d="M40.144 29.536V33.92H34.192V52H28.72V33.92H22.768V29.536H40.144ZM49.6423 37.12C50.2823 36.1387 51.0823 35.3707 52.0423 34.816C53.0023 34.24 54.0689 33.952 55.2423 33.952V39.744H53.7383C52.3729 39.744 51.3489 40.0427 50.6663 40.64C49.9836 41.216 49.6423 42.24 49.6423 43.712V52H44.1703V34.144H49.6423V37.12ZM61.8898 32.288C60.9298 32.288 60.1404 32.0107 59.5218 31.456C58.9244 30.88 58.6258 30.176 58.6258 29.344C58.6258 28.4907 58.9244 27.7867 59.5218 27.232C60.1404 26.656 60.9298 26.368 61.8898 26.368C62.8284 26.368 63.5964 26.656 64.1938 27.232C64.8124 27.7867 65.1218 28.4907 65.1218 29.344C65.1218 30.176 64.8124 30.88 64.1938 31.456C63.5964 32.0107 62.8284 32.288 61.8898 32.288ZM64.6098 34.144V52H59.1378V34.144H64.6098ZM75.3273 28.32V52H69.8553V28.32H75.3273ZM91.5487 33.952C93.5968 33.952 95.2394 34.6347 96.4767 36C97.7141 37.344 98.3328 39.2 98.3328 41.568V52H92.8927V42.304C92.8927 41.1093 92.5834 40.1813 91.9647 39.52C91.3461 38.8587 90.5141 38.528 89.4687 38.528C88.4234 38.528 87.5914 38.8587 86.9727 39.52C86.3541 40.1813 86.0447 41.1093 86.0447 42.304V52H80.5727V28.32H86.0447V36.544C86.5994 35.7547 87.3567 35.1253 88.3167 34.656C89.2767 34.1867 90.3541 33.952 91.5487 33.952ZM102.327 43.04C102.327 41.2053 102.669 39.5947 103.351 38.208C104.055 36.8213 105.005 35.7547 106.199 35.008C107.394 34.2613 108.727 33.888 110.199 33.888C111.458 33.888 112.557 34.144 113.495 34.656C114.455 35.168 115.191 35.84 115.703 36.672V34.144H121.175V52H115.703V49.472C115.17 50.304 114.423 50.976 113.463 51.488C112.525 52 111.426 52.256 110.167 52.256C108.717 52.256 107.394 51.8827 106.199 51.136C105.005 50.368 104.055 49.2907 103.351 47.904C102.669 46.496 102.327 44.8747 102.327 43.04ZM115.703 43.072C115.703 41.7067 115.319 40.6293 114.551 39.84C113.805 39.0507 112.887 38.656 111.799 38.656C110.711 38.656 109.783 39.0507 109.015 39.84C108.269 40.608 107.895 41.6747 107.895 43.04C107.895 44.4053 108.269 45.4933 109.015 46.304C109.783 47.0933 110.711 47.488 111.799 47.488C112.887 47.488 113.805 47.0933 114.551 46.304C115.319 45.5147 115.703 44.4373 115.703 43.072Z" fill="#2F327D"/>
</svg>
